<svg id="Layer_1" data-name="Layer 1" xmlns="http://www.w3.org/2000/svg" viewBox="0 0 265.74 95.77"><defs><style>.cls-1{fill:#fff;}</style></defs><title>logo-outline--white</title><g id="g160"><g id="g162"><path id="path164" class="cls-1" d="M51.54,46.57c-0.9-4.82-7.21-7.48-13.46-4.07L39.69,48l2.54,8.16,1.16,3.72C48.08,56.88,52.79,53.26,51.54,46.57ZM45.33,54c-0.68-2.23-2.18-7-2.18-7s-0.29-1-.65-2.23a6,6,0,0,1,3.65.36A3.13,3.13,0,0,1,48,47.24C48.5,50,47.57,52,45.33,54Z" transform="translate(-2.13 -2.12)"/></g></g><g id="g166"><g id="g168"><path id="path170" class="cls-1" d="M146.17,38.92A8.57,8.57,0,1,0,134.6,51.57a7.71,7.71,0,0,0,.9.72l11.28-12.77C146.58,39.32,146.38,39.11,146.17,38.92Zm-10.65,9a5.53,5.53,0,0,1,6.86-7.82Z" transform="translate(-2.13 -2.12)"/></g></g><path id="path174" class="cls-1" d="M219.15,50.41a4.16,4.16,0,0,1,.13,1.15,4.88,4.88,0,0,1-9.69-.4,4.54,4.54,0,0,1,4.53-4.11,7.91,7.91,0,0,0-1.46-.18c-4.47-.19-8.13,3-8.28,6.92a8,8,0,0,0,15.92.65,6.91,6.91,0,0,0-1.16-4" transform="translate(-2.13 -2.12)"/><path id="path183" class="cls-1" d="M83.46,55.23a4.88,4.88,0,0,1-9.69,0,4.53,4.53,0,0,1,4.36-4.29,8.18,8.18,0,0,0-1.46-.13c-4.47,0-8,3.32-8,7.27a8,8,0,0,0,15.93,0,6.7,6.7,0,0,0-1.31-4,3.59,3.59,0,0,1,.18,1.12" transform="translate(-2.13 -2.12)"/><g id="g185"><g id="g187"><path id="path196" class="cls-1" d="M247,31l-2,8.19-1.83-9.06-24.56-5.41,0.17,13.66,3.7,0.83-0.27,2.46a0.37,0.37,0,0,1-.1-0.07A19.07,19.07,0,0,0,206.47,41a21.56,21.56,0,0,0-5,2.69l-3.71-23.39H181.45L181,23H163.81l-2,12-1.43-1.76a22,22,0,0,0-16.9-8.08l14.6-7.84L147.95,2.12,129.56,23.31l3.17,3.87a24.24,24.24,0,0,0-7.47,4.75l-15.77-14L104,28.5l0.21-10.15L79.54,26.23l0.63,13.24,4.19-1.09L85,45.09a19.94,19.94,0,0,0-15.89.16,23.55,23.55,0,0,0-4.42,2.52,18.78,18.78,0,0,0-.85-11.72,21.09,21.09,0,0,0-9-10,21.7,21.7,0,0,0-9.57-3.4c-8.53-1.49-18.77,0-28.85,4.33A71.11,71.11,0,0,0,6.07,32.38l-3.94,2.5,2.38,4,7.39,12.48s2.26,3.83,2.27,3.82l4-2L18.72,53l18.35,41,1.77,3.94,4.1-1.32,9.93-3.18L57.22,92l-1.15-4.43L50.8,67.32A44.47,44.47,0,0,0,55,63.76,18.26,18.26,0,0,0,55.57,71a17,17,0,0,0,9.05,10.93,19.62,19.62,0,0,0,16.13,0A23.46,23.46,0,0,0,88,77.07l0.75,8.06,17.39-2.56,0-15.59,36.34,18V67.55a28.67,28.67,0,0,0,4.44-.72,36.93,36.93,0,0,0,10.47-4.12l-1.53,9.34,19.59,3.08,1.07-7.05,5.12,9.45,3.13-6,1.14,9.9,22.21,3.92-1.18-7.47a20.67,20.67,0,0,0,11.49-2.19l-0.88,8,14.78,2.09,0.11,6.06L247.8,96.6l20.07-60.49L247,31h0Zm-86.79,9,1-1.08L160,46.56l-3.21-2.89Zm-13-31.16,5.38,7.31L137.16,23.8l-1.06-1.61ZM45.27,65.24l6.14,23.56L41.47,92,21.09,46.43C20,47,17.93,48,16,48.92L8.66,36.44a64.32,64.32,0,0,1,9.58-5c9.61-4.09,18.78-5.31,26.12-4a17.49,17.49,0,0,1,7.75,2.65A16.55,16.55,0,0,1,59.39,38C62.94,46.18,57,58,45.27,65.24ZM91,61a18.23,18.23,0,0,1-3.56,10,19.9,19.9,0,0,1-8.29,6.7c-8.62,3.65-17.24,0-19.54-8.18-2.23-7.91,3-17.33,11.31-20.93,5.33-2.25,10.69-1.72,14.52.89a12.46,12.46,0,0,1,5,7,9.57,9.57,0,0,1,.25,1A14.38,14.38,0,0,1,91,61Zm46.9,16.65-36.06-18,0.06,18.89-9.33,1.27L91.89,72A20.92,20.92,0,0,0,94.32,56a16.89,16.89,0,0,0-4.42-7.52L88.56,32.55l-4.19,1.09-0.18-4,15-4.46,0.92,15.45,11-15.5L121.9,35.38,106.82,51.27,121,56.88a19.46,19.46,0,0,0,7,7.43,22.93,22.93,0,0,0,9.84,3.23V77.7h0ZM119.13,51.57l-5-1.94,4.68-4.54A22.4,22.4,0,0,0,119.13,51.57Zm39.24,4.72a29.9,29.9,0,0,1-12.62,6,24.72,24.72,0,0,1-3.35.55c-8.27.81-15.21-3-17.84-9.15a13.27,13.27,0,0,1-.77-2.31,16.2,16.2,0,0,1,5-16.35,20.7,20.7,0,0,1,9-4.56c7.88-1.9,14.82.5,19.07,5.72l-15,16a10.82,10.82,0,0,0,3.83-.36A13.21,13.21,0,0,0,153,47l6,5.4L160.82,54A32.35,32.35,0,0,1,158.37,56.3Zm31.85,21.33L187,56l-4.62,11.93L175.42,53h-0.08l-2.73,17.28-11.53-2,1.62-9.64c0.43-.41.86-0.82,1.28-1.25l3.74-3.85-3.63-3.25,3.86-23h11.63l2.91,15.89,3.26-18.42h8.32l3.45,22.44c-4.39,5-6.53,11.73-5.06,17.88A16.38,16.38,0,0,0,200.74,76c0.42,0.21.86,0.42,1.31,0.61l0.44,2.91-12.27-1.87h0Zm28.73-7a17.91,17.91,0,0,1-4.17,2.23,15.54,15.54,0,0,1-8.55.84,12.77,12.77,0,0,1-5-2.11,12.38,12.38,0,0,1-4.77-7.25,15.48,15.48,0,0,1,1.94-11.2,20.13,20.13,0,0,1,3.8-4.69,19,19,0,0,1,5.84-3.6c5.08-1.9,10.1-1.24,13.63,1.29a11.94,11.94,0,0,1,3.22,3.45,12.39,12.39,0,0,1,1.45,3.55,16.1,16.1,0,0,1-3,13.14A19.51,19.51,0,0,1,218.95,70.58ZM244.9,91l-8.52-2.54L235.64,57l-4.29,24.24L222,79.76l0.67-7c6.07-5.13,9.29-13.22,7.53-20.56a16.13,16.13,0,0,0-4.8-8.23l0.79-8.23-3.52-.94,0.24-4.4,16,3.22,5.39,25.55,5.52-22.9L262.07,39,244.9,91h0Z" transform="translate(-2.13 -2.12)"/></g></g></svg>